Simulation
nRows=20
nColumns=15
endheader
time  TH_x TH_y TH_z SC_y  SC_z  SC_x  AC_y  AC_z  AC_x  GH_y  GH_z  GH_yy  EL_x  PS_y
8.6175  0.000000  0.000000  0.000000  -38.80221486399393  1.530913068505008  -5.153494418973058  39.898160552431435  4.578412070152564  -1.7517590602554949  63.249506905721994  8.924616728484834  -42.30539892221831  20.506964205370352  120.000000
8.67495  0.000000  0.000000  0.000000  -37.39328095830816  0.9411831393426833  -6.569637296496832  39.02290920907861  4.728991057592117  -1.9268763708251107  58.89450134094808  10.498617033944253  -38.80880551679854  20.41863904818007  120.000000
8.7324  0.000000  0.000000  0.000000  -36.01124360279276  0.3409123127527614  -8.158681827968925  38.26049921090219  5.000425175701783  -1.9376782034938438  56.75045726316356  12.547891419723149  -37.301091821383366  20.50995801464376  120.000000
8.78985  0.000000  0.000000  0.000000  -34.772499437269566  -0.23220690920887233  -9.84357286994367  37.67708975637003  5.372068059205653  -1.6508463399683437  56.310640725170686  15.006412881927464  -37.27394585689368  20.77259693656738  120.000000
8.8473  0.000000  0.000000  0.000000  -33.80814618281056  -0.749826204350587  -11.551687593791263  37.307636042323324  5.845576847474358  -0.8959275268629562  56.86983111311562  17.743627048819896  -38.09084666133919  21.137482947038777  120.000000
8.90475  0.000000  0.000000  0.000000  -33.240445737305485  -1.1386148921390362  -13.243500752844126  37.236137691083144  6.4373883909663006  0.45820754101057387  57.90101758378612  20.624502082479342  -39.35711086974937  21.52838327952437  120.000000
8.9622  0.000000  0.000000  0.000000  -33.15009780965751  -1.323361236028452  -14.900748329959004  37.65069176021703  7.196572650117452  2.396302257414332  58.94473128419147  23.548509252925527  -40.814100499976284  21.86187461876104  120.000000
9.01965  0.000000  0.000000  0.000000  -33.59663470498645  -1.2139349556675234  -16.49662181792246  38.70352615531354  8.174781704415247  4.797824253944291  59.683758624659745  26.412083137084032  -42.356838740128694  22.070437211511294  120.000000
9.0771  0.000000  0.000000  0.000000  -34.52139467691006  -0.6927240069852875  -17.969179841997978  40.46038858085237  9.405280193499603  7.470411069134592  60.166876187576456  29.16250478447912  -44.14448543962262  22.16321267544015  120.000000
9.13455  0.000000  0.000000  0.000000  -35.6898107749654  0.2501494515644058  -19.181577369948645  42.909396566613474  10.929082266392628  10.201609563343869  60.57043904739385  31.81240411069536  -46.37741294107003  22.16798743076864  120.000000
9.192  0.000000  0.000000  0.000000  -36.88655746657069  1.5681925497609246  -19.905751394064797  45.85008050949419  12.736916924239338  12.885569631852373  61.04777598725017  34.314636055322666  -49.13350285728899  22.107230674659743  120.000000
9.24945  0.000000  0.000000  0.000000  -38.043701700767464  3.2025875487348796  -19.872355285211146  48.896838474258715  14.723792696502935  15.537236562411575  61.7527684862244  36.54986308881193  -52.40721249074545  21.987575205233014  120.000000
9.3069  0.000000  0.000000  0.000000  -39.19077638909812  5.102249491241188  -18.843239999855847  51.69298059995762  16.73591270019876  18.186866235113538  62.82555572254041  38.46157373733448  -56.16614394014849  21.800628436667655  120.000000
9.36435  0.000000  0.000000  0.000000  -40.397067839075646  7.222132687224294  -16.67451478420008  54.02056614791969  18.59715408657042  20.809419489055028  64.30905371951997  40.12141346024923  -60.36030181218621  21.52825440730917  120.000000
9.421800000000001  0.000000  0.000000  0.000000  -41.73835613818747  9.553414063965242  -13.349389440302748  55.84467980821686  20.16250937339412  23.268148956374837  66.07836757976268  41.703995614265914  -64.87536700478523  21.154188635603106  120.000000
9.47925  0.000000  0.000000  0.000000  -43.27791169384252  12.135690216063358  -8.9553296629859  57.26578963021142  21.36032328272701  25.34877775128812  67.85951344636439  43.39648700656968  -69.47800560069501  20.693990990296356  120.000000
9.5367  0.000000  0.000000  0.000000  -45.12321997773461  14.816753135326392  -3.648798429007736  58.317340902566755  22.081590770305798  27.004945191740326  69.39553096884579  45.23059546568507  -73.88105106919735  20.18366137198717  120.000000
9.59415  0.000000  0.000000  0.000000  -47.32054109634731  17.2528043706314  2.3500519066674412  58.95517829395443  22.19507445612872  28.382522786733716  70.59872309279147  47.04890337992228  -77.85268450565282  19.66232042428264  120.000000
9.6516  0.000000  0.000000  0.000000  -49.74049519135153  19.20440489194621  8.72487350700609  59.22758201942498  21.716585178552997  29.544341018415235  71.43269067993968  48.683197354320654  -81.20845194435904  19.170736818078115  120.000000
9.70905  0.000000  0.000000  0.000000  -52.17173522391237  20.593024327189642  15.091145693286807  59.249360455956015  20.76203249852546  30.462587239393432  71.895214500194  50.01437649903104  -83.82574543038878  18.74668649520889  120.000000
